<?xml version="1.0" encoding="UTF-8"?>
<svg id="Layer_1" data-name="Layer 1" xmlns="http://www.w3.org/2000/svg" viewBox="0 0 2675 999">
  <defs>
    <style>
      .cls-1 {
        fill: #fff;
      }
    </style>
  </defs>
  <path class="cls-1" d="M374.64,80C170.92,80,5.77,271.33,5.77,507.34c0-204.79,143.3-370.8,320.06-370.8s320.06,166.01,320.06,370.8-143.3,370.8-320.06,370.8S5.77,712.12,5.77,507.34c0,236.01,165.15,427.34,368.87,427.34s368.87-191.33,368.87-427.34S578.36,80,374.64,80Z"/>
  <path class="cls-1" d="M2664.57,631.34c0,43.19-28.6,84.41-78.44,113.1-44.46,25.55-102.4,39.63-163.15,39.63s-118.7-14.08-163.17-39.63c-49.79-28.65-77.54-100.16-78.42-140.78l-.1-5.01h167.09l.75,4.03c.24,1.28.45,2.75.69,4.4,2.65,18.36,7.62,52.58,73.2,53.05h1.49c35.61,0,71.47-8.9,72.41-29.03.88-18.3-16.93-22.51-54.91-27.16-8.46-1.02-18.74-1.57-29.6-2.14l-.47-.02c-10.33-.53-21.03-1.08-32.64-2.14-54.74-4.97-105.33-23.55-142.45-52.28-.69-.53-1.39-1.08-2.08-1.63-34.39-26.95-53.38-60.96-53.38-95.7,0-43.19,28.6-84.41,78.44-113.1,44.46-25.55,102.4-39.63,163.15-39.63s118.7,14.08,163.17,39.63c49.79,28.65,77.54,100.16,78.42,140.78l.1,5.01h-167.09l-.75-4.03c-.24-1.28-.45-2.75-.69-4.4-2.65-18.36-7.62-52.58-73.2-53.05h-1.49c-35.61,0-71.47,8.9-72.41,29.03-.88,18.3,16.93,22.51,54.91,27.16,8.52,1.02,18.85,1.57,29.79,2.16h.27c10.37.53,21.07,1.08,32.64,2.14,54.74,4.97,105.33,23.55,142.45,52.28.73.57,1.41,1.1,2.08,1.63,34.39,26.95,53.38,60.96,53.38,95.7ZM2047.33,298.67l-69.5,181.9-69.37-181.59h-172.4l155.57,407.21-66.01,172.81h172.4l221.71-580.33h-172.4ZM1143.48,204.71v108.08c-25.2-8.94-52.3-13.81-80.52-13.81-133.2,0-241.57,108.37-241.57,241.57s108.37,241.57,241.57,241.57,241.57-108.37,241.57-241.57V204.71h-161.04ZM1062.95,621.07c-44.41,0-80.52-36.12-80.52-80.52s36.12-80.52,80.52-80.52,80.52,36.12,80.52,80.52-36.12,80.52-80.52,80.52ZM1557.87,298.98c-133.2,0-241.57,108.37-241.57,241.57s108.37,241.57,241.57,241.57c28.22,0,55.32-4.87,80.52-13.81v13.81h161.04v-241.57c0-133.2-108.37-241.57-241.57-241.57ZM1548.05,621.07c-44.4,0-80.52-36.12-80.52-80.52s36.12-80.52,80.52-80.52,80.52,36.12,80.52,80.52-36.12,80.52-80.52,80.52Z"/>
</svg>